# xmcd
#
# Track frame offsets: 
#        150
#        15012
#        26150
#        42032
#        59495
#        73025
#        87207
#        99205
#        117287
#        131705
#
# Disc length: 2026 seconds
#
# Revision: 0
# Processed by: cddbd v1.5.2PL0 Copyright (c) Steve Scherf et al.
# Submitted via: ExactAudioCopyFreeDBPlugin 1.0
#
DISCID=7807e80a
DTITLE=Jonas Fjeld Band - The Tennessee Tapes
DYEAR=1977
DGENRE=Country
TTITLE0=Tiger
TTITLE1=We Could Do It Again
TTITLE2=Singapore
TTITLE3=Woman
TTITLE4=Gotta Get Up To Get Down
TTITLE5=Did You See The Saucers?
TTITLE6=Boogie On (Jole Blon)
TTITLE7=I'm Crying
TTITLE8=Are You Ever Coming Back
TTITLE9=Roll On
EXTD=
EXTT0=
EXTT1=
EXTT2=
EXTT3=
EXTT4=
EXTT5=
EXTT6=
EXTT7=
EXTT8=
EXTT9=
PLAYORDER=
